<?xml version="1.0" encoding="UTF-8"?>
<svg id="Capa_1" data-name="Capa 1" xmlns="http://www.w3.org/2000/svg" viewBox="0 0 164.31 225.85">
  <defs>
    <style>
      .cls-1 {
        fill: #fff;
      }
    </style>
  </defs>
  <g id="Objeto_generativo" data-name="Objeto generativo">
    <g>
      <path class="cls-1" d="M77.06,47.43c3.59,3.18,7.59,6.11,11.47,8.88.01.29-.21.38-.37.56,2.29,2.04,19.16,14.93,20.91,14.25l.19-17.03c1.09-6.17,2.12-12.35,3.33-18.51,2.8.65,6.2-2,9.44.74,2.38,2.02.66,3.23,1.3,4.63.36.79,2.3,1.51,2.59,3.33s-.27,3.6-1.67,4.63c-.57-.43-.45-2.5-1.11-2.59-1.38-.18-2.41,15.94-2.78,17.95-.5,2.77-3.62,16.51-6.11,17.21s-12.85-6.67-15.55-8.51c-4.93-3.37-9.33-7.59-14.44-10.73,1.22,10.03,1.24,20.34-1.3,30.17-.98,3.79-3.69,7.82-3.7,11.66-2.5,9.5,2.56,21.44,4.44,30.72.94,4.65,3.71,15.93,2.96,20.17-2.08,11.76-29.17,50.76-15.36,59.78,1.73,1.13,4.84.95,6.48,2.59-.04.26.93.88-.19,1.48-1.54.83-6.57.77-8.14,0-3.19-1.57-2.75-9.4-7.03-9.62-1.85.62-.47,7.23-2.04,8.14-.25-3.61-2.5-8.94-1.11-12.4.27-.69,2.54-2.16,2.96-2.96,5.01-9.46,3.18-24.32,6.29-34.79.99-3.32,6.44-11.31,6.66-12.58.51-2.93-4.59-13.81-6.66-16.29-8.51-10.19-25.95-3.57-37.01-1.85,4.44-5.29,12.72-11.8,15.92-17.77,4.59-8.55-.72-18.91,9.81-27.2,4.89-3.85,14.53-4.09,12.03-12.58,3.51.16,7.28-1.57,6.29-5.74-.71-3.02-3.43-.42-5-.93-.51-.16-.38-1.32-2.04-1.85l-9.44-22.95c-4.6,6.63-10.95,11.22-19.43,8.7,3.15-1.45,7.12-1.73,8.88-5.18-6.43.98-12.83,4.16-18.14,8.14-1.55-5.23,1.8-9.46,5.74-12.4,2.34-1.74,7.04-2.83,8.14-5.55-8.16,3.52-15.95,4.47-18.69,14.25-.17.61-.15,5.79-1.11,4.81-2.83-5.21-6.08-14.53-1.85-19.62,5.28-6.36,20.7-2.15,24.8-11.1-8.36,9.67-26.56,1.49-31.65,15.73-1.65-15.15,19.58-10.84,24.06-21.84-4.47,5.89-11.19,6.77-17.77,8.88l-6.85,5.37c4.18-8.43,14.54-7.68,21.28-12.77,7.32-5.53,5.34-13.79,11.84-18.51,6.12-4.44,16.42-2.41,22.02,2.04.04,2.53.7,7.49,1.48,9.99.14.44,2.15,1.79,2.22,2.59.05.6-1.09,1.97-1.11,2.22-.09,1.49.5,6.27-.93,6.85-2.69,1.08-6.13-2.43-5.74,3.52s6.78,10.38,10.73,13.88Z"/>
      <path class="cls-1" d="M159.97,214.73c2.08,3.2,6.94,7.92,2.59,11.1-.36-.03-.76.05-1.11,0-1.37-.2-5.9-1.77-6.85-2.59-1.95-1.68-2.55-6.51-4.44-7.4-.09-.04-.93.74-1.85.37-1.4-.56-1.3-4.67-2.78-5.18-2.21-.76-3.19,1.31-5.55-1.3-6.64-7.34-19.91-35.7-26.28-46.27-7.44-12.36-15.12-24.78-23.5-36.46l-6.48,7.77c-1.88-9.28-6.95-21.22-4.44-30.72.86-3.27,3.37-6.96,4.44-10.18,3.25-9.8,3.38-18.4,2.78-28.69,6.31,5.81,12.93,11.31,20.54,15.36,1.3,22.86,5.78,44.23,15.18,65.14,9.97,22.18,24.44,43.62,37.01,64.4l-2.22.74c1.14,1.17,2.08,2.53,2.96,3.89Z"/>
      <path class="cls-1" d="M23.76,214.73c-1.13.97-1.11,4-5,2.59-1.14-.41.31-2-.37-2.22-.37-.12-5.33,3.6-6.66,4.07-3.09,1.11-12.63,2.36-11.66-2.78,4.63-.75,5.76-.57,9.62-3.15.94-.63,6.32-5.29,6.29-5.74-.07-1.28-1.82.54-.37-2.22,3.96-7.55,14.26-18.97,19.62-26.65,9.89-14.19,19.12-28.85,29.43-42.75,4.43,3.38,6.29,8.77,7.96,13.88-6.29,8.96-13.02,17.65-19.25,26.65-3.99,5.77-17.87,28.77-21.47,31.83-2.51,2.14-4.58-.27-6.11.56-.28.15-1.67,5.15-2.04,5.92Z"/>
      <path class="cls-1" d="M90.2.05c3.34-.28,7.47.56,9.81,3.15,4.08,4.5,1.46,9.25,1.48,14.07,0,2.08.96,12.7.74,13.32-.27.78-4.23,2.85-5.18,3.33,3.14.72,4.93-2.26,3.15,3.52-1.63-2.39-6.33.89-6.66.74-.4-.19-.77-3.48-.56-3.89.34-.65,2.96,1.11,3.33-.37-4.11-.24-3.38-1.74-3.33-5.18-.68-1.57-5.1,1.46-6.11,2.04-.64-1.77-5.5-8.34-5.74-9.44-.39-1.81.87-3.54.74-5.55-.2-3.25-3.87-8.04-3.7-9.25.4-2.86,9.51-6.26,12.03-6.48Z"/>
      <path class="cls-1" d="M112.59,35.59c-1.21,6.15-2.24,12.33-3.33,18.51-.35,1.97-1.84,14.18-2.78,14.44l-16.47-12.03c6.92-7.31,11.27-16.17,14.25-25.72.65-.24,6.97,4.49,8.33,4.81Z"/>
      <path class="cls-1" d="M67.43,70.01c.04.54-.2,6.55-.37,6.85-.26.47-3.23.94-2.96,2.04-1.23.48-4.5,3.14-5.92,2.04-3.36-8.18.41-13.57,6.48-18.69.71.06,2.69,6.65,2.78,7.77Z"/>
      <path class="cls-1" d="M88.53,56.31c-3.89-2.78-7.89-5.71-11.47-8.88l13.14-12.21c.84.64-1.8,18.44-1.67,21.1Z"/>
      <path class="cls-1" d="M68.54,70.38c1.66.53,1.53,1.69,2.04,1.85,1.57.5,4.28-2.09,5,.93.99,4.17-2.78,5.9-6.29,5.74-2.82-.13-.84-1.68-5.18,0-.27-1.1,2.7-1.57,2.96-2.04.17-.3.41-6.31.37-6.85.38,1.2.87.29,1.11.37Z"/>
    </g>
  </g>
</svg>