<?xml version="1.0" encoding="UTF-8"?>
<svg id="Capa_1" data-name="Capa 1" xmlns="http://www.w3.org/2000/svg" viewBox="0 0 172.17 163.49">
  <defs>
    <style>
      .cls-1 {
        fill: #fff;
      }
    </style>
  </defs>
  <g id="Objeto_generativo" data-name="Objeto generativo">
    <g>
      <path class="cls-1" d="M60.77,152.82c.79-.1-.19.69.28.83,1.66.08,12.73-.59,13.32-.28.24.13-.2,1.33-.28,1.39-.39.27-6.32-.35-7.49-.28-.11,0-.44.55-.55.55-.19,0,.15-.59-.83-.55-.11,0-1.54.82-1.94.83-6.39.2-14.4.22-20.81,0-.2,0-.08.58-.28.55-.21-.02-1.34-1.75-.55-2.22,3.57-.39,7.27.08,10.82,0,2.58-.06,5.11-.28,7.77-.28.11,0,.43-.54.55-.55Z"/>
      <path class="cls-1" d="M90.18,161.43c1.76,0,3.51,0,5.27,0,.18,0,.14,1.14.55,0l14.84.42c0,.43-7.2,1.49-7.91,1.53-8.1.45-17.29-.57-25.53,0l-.42-.42c1.59.34,1.95-1.21,2.08-1.25,1.14-.3,9.22-.27,11.1-.28Z"/>
      <path class="cls-1" d="M107.1,152.55c2.08-.1,6.09,1.06,7.49,1.11,1.8.06,12.18-.53,12.76-.28.63.28.38,1.27.42,1.8-4.05.18-8.09-.32-12.07-.42-1.22-.03-2.94.1-4.44,0-2.86-.18-5.39.58-7.91-1.25.96-.68,2.65-.92,3.75-.97Z"/>
      <path class="cls-1" d="M81.44,151.44l-.97.55c1.92.59,11.85-.75,12.76-.28.11.06.89,1.78,0,1.94h-16.37c.68-1.58-.38-.42-.69-.97.28-1.95,2.16-.11,2.77-1.53.85.07,1.6.24,2.5.28Z"/>
      <path class="cls-1" d="M52.44,161.43c2.15.23,4.58-.07,6.66,0,.21,0,.07.55.28.55,2.56.08,15.44-.57,16.37,0,.18.11.21.83.14.97-.26.5-10.04.45-11.24.42-.09,0-.27-.82-.55-.83-2.04-.09-8.39.67-9.99.28-.11-.03-1.41-1.17-1.66-1.39Z"/>
      <g>
        <g>
          <path class="cls-1" d="M143.04,66.81h-9.16c-.04-.06-1.06-.3-.83-1.11.82-.07,1.68.07,2.5,0,.68-.06,1.39.04,2.08,0-4.39-26.65-27.31-44-54.25-42.73-4.52.21-8.44,1-12.76,2.22l-.83-.55c26.25-8.33,55.22,3.68,66.04,29.27.83,1.97,3.13,11.53,3.61,11.93.74.62,3.75-.72,3.61.97Z"/>
          <g>
            <path class="cls-1" d="M162.46,65.98s-.48.69-.55.83c-6.27-.09-12.59,0-18.87,0,.14-1.69-2.87-.36-3.61-.97-.48-.4-2.77-9.96-3.61-11.93-10.82-25.59-39.79-37.6-66.04-29.27-21.26,6.75-35.48,22.68-37.46,45.23l-13.18-11.93-9.02,8.74C15.57,20.18,62.03-9.88,107.1,2.99c28.47,8.13,51.06,33.66,55.36,62.99Z"/>
            <path class="cls-1" d="M85.32,8.26l.28-1.39c15.08-.12,30.79,5.52,42.59,14.71,1.54,1.19,11.94,10.76,11.79,11.79,0,.05-.64.69-.69.69-.39.02-4.52-5.12-5.27-5.83-12.92-12.22-30.73-20-48.7-19.98Z"/>
            <path class="cls-1" d="M85.6,6.88l-.28,1.39c-17.56.02-36.87,8.45-48.7,21.37-.14-.12-.17-1.46-.14-1.53.64-1.36,7.95-7.32,9.57-8.46,11-7.77,26.05-12.66,39.54-12.76Z"/>
            <path class="cls-1" d="M70.62,25.19c-6.27,1.77-10.24,3.76-15.54,7.49-8.46,5.96-15.55,14.15-19.15,24-1.56,4.28-2.06,8.9-3.61,13.18,1.98-22.55,16.2-38.48,37.46-45.23l.83.55Z"/>
          </g>
        </g>
        <g>
          <path class="cls-1" d="M152.47,92.61c-1.85,1.98-3.05,7.67-4.44,10.68s-3.42,6.42-5.27,9.3c-.54.06-.79-.55-1.39-.14-.35.24-4.05,5.86-4.99,6.94-5.26,6.01-11.48,11.2-18.45,15.12-1.35.76-8.53,3.54-8.88,3.88-.66.65-.38,1.15-.42,1.94-20.17,7.25-40.75,4.97-58.82-6.38.13-.44.7-.87.42-1.39-.26-.48-7.53-5.2-8.88-6.38-8.14-7.11-14.85-16.82-19.01-26.78-.72-.12-.58.84-.55,1.25-1.07-2.56-2.32-5.53-3.05-8.19-.43-1.55-1.31-8.1-1.66-8.74,3.39-.33,7.37-.75,10.82-.55,1.4.08,2.86.51,4.3.28.18.46.51.94.69,1.39,2.33,5.58,2.7,10.54,6.1,16.51,7.92,13.92,23.76,25.12,39.96,25.94,27.61,3.01,46.58-11.63,57.16-35.79.69-1.57,1.94-2.85,2.5-4.86.19-.68.54-6.01.97-5.97l12.9,11.93Z"/>
          <path class="cls-1" d="M17.06,83.73c.36.64,1.24,7.19,1.66,8.74.73,2.66,1.98,5.63,3.05,8.19.58,9.58,20.01,28.26,28.02,33.3,18.07,11.35,38.65,13.63,58.82,6.38,14.19-5.1,26.01-15.15,34.13-27.75,1.86-2.88,3.84-6.19,5.27-9.3s2.59-8.7,4.44-10.68c2.39-2.56,5.58-4.82,8.05-7.35-5.19,39.06-39.54,67.84-79.08,66.18-.9-.04-1.65-.21-2.5-.28-30.1-2.39-56.08-24.19-66.04-52.3-.9-2.53-3.98-12.74-3.88-14.84.02-.38.73-.55.55-1.11,1.67.06,6.76-.48,7.49.83Z"/>
          <path class="cls-1" d="M32.05,74.02c.76.69,1.44,1.51,2.22,2.22,1.2,1.1,2.4,2.23,3.61,3.33.4.36.86.6,1.11.83.08.08.18.18.28.28.94.88,1.64,2.09,2.77,2.77-.77.15-1.72.51-2.5.55-.97.06-2.35-.05-3.61,0-1.39.05-2.29-1.17-2.77.55,0,.02-.33-.04-.28.28-.19-.45-.51-.92-.69-1.39-1.45.24-2.9-.2-4.3-.28,2.71.14,5.28-.13,7.77-.83.23,1.26,2.32.1,3.05.14l-19.56-17.34L2.08,82.49c.26.43.47.34.83.42,1.52.33,4.84-.07,6.66,0,.17.56-.54.73-.55,1.11H0l.14-1.8,19.01-19.28c4.29,3.67,8.73,7.3,12.9,11.1Z"/>
          <path class="cls-1" d="M35.65,82.35c-2.49.71-5.06.97-7.77.83-3.45-.2-7.43.23-10.82.55-.73-1.31-5.82-.77-7.49-.83-1.81-.07-5.14.33-6.66,0l16.51-16.65,17.9,15.95c-.27.33-1.25.02-1.66.14Z"/>
          <path class="cls-1" d="M142.76,112.59c-8.12,12.6-19.93,22.64-34.13,27.75.04-.79-.24-1.29.42-1.94.34-.34,7.53-3.12,8.88-3.88,6.97-3.93,13.19-9.12,18.45-15.12.95-1.08,4.64-6.69,4.99-6.94.6-.41.85.2,1.39.14Z"/>
          <path class="cls-1" d="M49.81,133.96c-8.01-5.03-27.44-23.72-28.02-33.3-.03-.41-.16-1.36.55-1.25,4.16,9.96,10.87,19.66,19.01,26.78,1.35,1.18,8.62,5.9,8.88,6.38.28.51-.29.94-.42,1.39Z"/>
          <path class="cls-1" d="M78.94,127.3c-16.19-.82-32.03-12.03-39.96-25.94-3.4-5.97-3.77-10.93-6.1-16.51-.05-.32.27-.26.28-.28,4.28,21.99,23.34,40.29,45.78,42.73Z"/>
          <path class="cls-1" d="M35.65,82.35c.42-.12,1.39.2,1.66-.14l-17.9-15.95L2.91,82.9c-.36-.08-.57,0-.83-.42l17.06-17.34,19.56,17.34c-.73-.04-2.82,1.13-3.05-.14Z"/>
        </g>
        <g>
          <path class="cls-1" d="M131.94,65.7c.36-.02.75.03,1.11,0-.23.81.8,1.05.83,1.11.13.22-.49-.05.55,1.11,5.47,6.07,12.12,11.15,17.62,17.2.26-.04.59.05.83,0,1.13-.24,14.32-14.69,15.95-16.65.19-.22,1.21-.85,1.25-1.11l-.28-.55c-2.63-.03-5.28.04-7.91,0,.07-.14.51-.82.55-.83.46-.14,9.15-.22,9.57,0l.14,1.25c-2.47,2.16-17.66,19.82-19.01,20.12-.66.15-1.15-.27-1.66-.55-2.07-1.17-10.05-9.91-12.35-12.21-.82-.83-1.68-1.67-2.5-2.5-1.91-1.96-4.12-3.73-5.55-6.1.04,0,.12-.23.83-.28Z"/>
          <path class="cls-1" d="M143.04,66.81c6.28,0,12.6-.09,18.87,0,2.63.04,5.27-.03,7.91,0l.28.55c-.04.26-1.06.89-1.25,1.11l-16.23,15.54-18.17-16.09c-1.04-1.16-.42-.89-.55-1.11h9.16Z"/>
          <path class="cls-1" d="M168.84,68.47c-1.64,1.95-14.83,16.4-15.95,16.65-.25.05-.57-.04-.83,0-5.5-6.06-12.15-11.14-17.62-17.2l18.17,16.09,16.23-15.54Z"/>
        </g>
        <g>
          <path class="cls-1" d="M139.15,74.58l-3.05,16.93c-10.58,24.16-29.54,38.8-57.16,35.79-22.44-2.44-41.5-20.74-45.78-42.73.49-1.72,1.38-.5,2.77-.55,5.69,32.59,41.39,50.56,71.45,36.63,18.48-8.57,29.56-28.39,29.27-48.56.81.83,1.67,1.67,2.5,2.5Z"/>
          <path class="cls-1" d="M57.57,33.23c-10.16,6.64-17.36,17.18-20.81,28.72l-2.5,14.29c-.78-.71-1.46-1.53-2.22-2.22.26-1.37.16-2.79.28-4.16,1.55-4.28,2.05-8.9,3.61-13.18,3.59-9.85,10.69-18.04,19.15-24,1.11,1.28,1.69-.72,2.5.55Z"/>
          <path class="cls-1" d="M83.38,22.97c.45,2.98-1.87,1.19-2.5,2.5-8.1.7-16.51,3.33-23.31,7.77-.81-1.27-1.38.72-2.5-.55,5.3-3.74,9.27-5.73,15.54-7.49,4.33-1.22,8.24-2.01,12.76-2.22Z"/>
          <path class="cls-1" d="M43.7,82.9c-.38.68-1.11.45-1.66.55-1.13-.69-1.84-1.9-2.77-2.77,1.93.05,3.13,1.01,4.44,2.22Z"/>
          <path class="cls-1" d="M135.54,65.7c-5.75-26.06-27.9-42.55-54.66-40.23.63-1.31,2.95.48,2.5-2.5,26.94-1.27,49.86,16.08,54.25,42.73-.69.04-1.4-.06-2.08,0Z"/>
          <g>
            <path class="cls-1" d="M39.54,84.01c.78-.05,1.73-.41,2.5-.55.55-.11,1.29.12,1.66-.55.05.04.96.19,1.11.69-.05.34-7.14,2.7-5.27.42Z"/>
            <path class="cls-1" d="M38.98,80.4c-.25-.23-.71-.47-1.11-.83,4.21-1.51,9.21-.07,1.11.83Z"/>
            <path class="cls-1" d="M131.94,65.7c-.71.05-.79.27-.83.28-.97.06-4.93,1.12-3.47-.55.54.07,1.03-.14,1.53-.28.74-.2,1.66-.16,2.22-.55.49.37.69.4.55,1.11Z"/>
            <path class="cls-1" d="M104.47,70.97c-2.33,1.46-8.75,3.42-11.65,4.44-.65.23-1.11.76-1.94.55.34-2.05-.58-4.14-2.22-5.27-1.95-1.35-3.76-1.54-5.83-.28v-17.62c.08-.31,1.24-1.68,1.53-1.8,7.45-3.37,3.65,16.13,4.58,19.28.33.61,11.82-4.61,12.9-4.86,4.56-1.03,6.47,3.14,2.64,5.55Z"/>
            <path class="cls-1" d="M81.99,78.46c.08.03,1.03,1.36,1.11,1.39-.23.32-.55.87-.83,1.11-8.76,7.63-18.89,13.96-27.61,21.64-.29.25-4.53,5.94-4.86,4.02-.09-.53,1.41-1.49,1.39-1.66-.01-.11-1.08-.05-.83-1.66.3-1.97,27.78-21.57,31.08-24.83.18.02.43-.04.55,0Z"/>
            <path class="cls-1" d="M90.87,81.51c-.54.6-2.7,2.15-3.47,2.22s-5.88-1.11-5.13-2.77c.28-.24.6-.79.83-1.11,2.96.95,7.21-.57,7.77-3.88.84.21,1.29-.33,1.94-.55.17,2.38-.36,4.33-1.94,6.1Z"/>
            <path class="cls-1" d="M38.57,73.47c.54-.16,10.85-.21,11.38,0,1.05.42.87,2.4-.55,2.77-.71.19-10.86-.05-11.38-.28-.84-.37-.57-2.16.55-2.5Z"/>
            <path class="cls-1" d="M121.53,73.47c.53-.2,10.83-.17,11.38,0,.94.3,1.42,2.07.28,2.5-.55.2-11.11.21-11.65,0-.9-.34-.98-2.13,0-2.5Z"/>
            <path class="cls-1" d="M116.81,92.06c.67-.22,8.88,4.02,9.71,4.72,1.42,1.19,1.07,2.85-.55,2.77-.57-.03-9.68-5.15-9.85-5.69s.12-1.62.69-1.8Z"/>
            <path class="cls-1" d="M53.55,91.78c1.21-.14,1.81.76,1.53,1.8s-8.97,5.36-10.41,6.24c-.89-.77-1.47-1.37-.55-2.5.35-.42,8.89-5.49,9.43-5.55Z"/>
            <path class="cls-1" d="M125.42,50.44c2.07-.32,2.87,1.02,1.11,2.5-.43.36-8.11,4.66-8.6,4.72-1.86.22-2.47-1.22-1.11-2.5.36-.34,8.12-4.64,8.6-4.72Z"/>
            <path class="cls-1" d="M85.18,109.26c2.59-.75,2.11,10.66,1.8,11.79-.16.59-.77.95-1.25,1.25-.27.02-1.16-.45-1.25-.69-.21-.54-.21-11.11,0-11.65.07-.19.55-.47.69-.69Z"/>
            <path class="cls-1" d="M103.5,105.38c.13-.04.98-.04,1.11,0,.53.18,5.68,9.02,5.69,9.57,0,.49,0,.67-.42.97-1.68,1.25-3.45-2.44-4.3-3.75-.8-1.22-3.99-6.15-2.08-6.8Z"/>
            <path class="cls-1" d="M85.18,27.69c.54-.19,1.59.12,1.8.69.19.51.19,10.32,0,10.82-.34.9-2.13.98-2.5,0-.19-.51-.19-10.32,0-10.82.02-.06.64-.67.69-.69Z"/>
            <path class="cls-1" d="M66.87,105.38c.82-.18,1.85.56,1.8,1.53-.03.79-5.41,9.5-6.52,9.3-.35-.06-.99-1.02-.97-1.53.02-.54,5.16-9.18,5.69-9.3Z"/>
            <path class="cls-1" d="M62.43,33.51c.93,0,6.36,8.81,6.24,9.57-.01.09-1.16,1.24-1.25,1.25-1.15.17-6.48-9.02-6.24-9.85.05-.19,1.15-.97,1.25-.97Z"/>
            <path class="cls-1" d="M90.87,81.51c1.59-1.77,2.12-3.73,1.94-6.1,2.9-1.02,9.33-2.98,11.65-4.44,2.5,1.39-3.99,2.88-4.86,3.33-.42.22-.95,1.14-1.39,1.39s-2.81.64-3.05.83c-.77.63-1.77,6.07-4.3,4.99Z"/>
            <path class="cls-1" d="M108.77,33.51c.52-.1,1.48.7,1.53.97.11.61-5.05,9.41-5.69,9.57-4.86,1.26,3.49-10.42,4.16-10.54Z"/>
            <path class="cls-1" d="M44.81,52.66l1.11-1.94c.48.09,8.11,4.11,8.46,4.44,1.36,1.28.75,2.72-1.11,2.5-.5-.06-7.83-4.39-8.46-4.99Z"/>
            <path class="cls-1" d="M88.65,70.69c-2.4.49-6.55.18-7.21,3.47-.43,2.13,1.31,2.75.55,4.3-.13-.04-.38.02-.55,0-1.59-2.66-1.4-6.34,1.39-8.05,2.07-1.26,3.88-1.07,5.83.28Z"/>
            <path class="cls-1" d="M40.79,59.87l4.86,2.08c-.29,1.09-7-1.46-4.86-2.08Z"/>
            <path class="cls-1" d="M39.68,64.59c.25-.05,4.93,1.12,4.86,1.53-.6.83-5.46-.42-5.55-.83.21-.13.55-.66.69-.69Z"/>
            <path class="cls-1" d="M44.95,87.34c.38.03.46.15.69.42.09.62-4.77,2.21-5.55,1.66.28-.72,4.59-2.11,4.86-2.08Z"/>
            <path class="cls-1" d="M45.78,91.78c3.46-.21-3.69,3.32-4.02,2.08.23-.59,3.8-2.07,4.02-2.08Z"/>
            <path class="cls-1" d="M90.46,27.96c1.16-.88.66,5.52-.28,5.27-.69-.47.06-5.11.28-5.27Z"/>
            <path class="cls-1" d="M38.85,69.31c.36-.1,4.79.5,4.86.97.04,1.34-7.26-.26-4.86-.97Z"/>
            <path class="cls-1" d="M117.37,102.88c.26-.04,4.02,3.2,4.02,3.47,0,1.88-5.49-3.22-4.02-3.47Z"/>
            <path class="cls-1" d="M124.86,91.5c7.21,2.92,4.42,3.77-.69.69l.69-.69Z"/>
            <path class="cls-1" d="M120.14,99.55c.27-.04,4.22,2.63,4.02,3.47-.48.74-3.9-2.44-4.3-2.64-.37-.24.11-.81.28-.83Z"/>
            <path class="cls-1" d="M42.45,55.43c.25-.06,4.62,2.07,4.58,2.36-.24,1.2-6.57-1.9-4.58-2.36Z"/>
            <path class="cls-1" d="M75.75,28.52c.83-.17,1.84,5.17,1.11,5.27-.79-.35-1.8-5.13-1.11-5.27Z"/>
            <path class="cls-1" d="M131.52,69.31c5.34.23-2.83,2-3.47,1.25-.78-.91,3.23-1.26,3.47-1.25Z"/>
            <path class="cls-1" d="M126.25,87.34l4.86,2.08c-.35.99-7.03-1.65-4.86-2.08Z"/>
            <path class="cls-1" d="M66.59,31.57c.83-.07,2.69,4.66,1.94,4.72-.88.07-2.7-4.66-1.94-4.72Z"/>
            <path class="cls-1" d="M90.18,116.75c.65,0,1.07,5.07.83,5.27-1.18,1-1.53-5.26-.83-5.27Z"/>
            <path class="cls-1" d="M54.11,39.34c.28-.06,4.14,4.15,2.77,4.44-.28.06-4.18-4.14-2.77-4.44Z"/>
            <path class="cls-1" d="M102.94,113.42c.31-.05,2.94,4.79,1.66,4.99-.37.06-2.73-4.84-1.66-4.99Z"/>
            <path class="cls-1" d="M57.71,36.56c.49-.09,3.47,3.93,2.77,4.44-.64,0-3.98-4.21-2.77-4.44Z"/>
            <path class="cls-1" d="M110.99,108.71c.28-.06,3.91,4.53,2.5,4.72-.29.04-3.73-4.45-2.5-4.72Z"/>
            <path class="cls-1" d="M114.32,105.93c.28-.05,4.11,3.63,3.05,4.44-.42-.44-4.5-4.19-3.05-4.44Z"/>
            <path class="cls-1" d="M50.5,42.95c.8-.13,4.78,3.77,3.33,3.88-.27.02-4.53-3.69-3.33-3.88Z"/>
            <path class="cls-1" d="M94.62,115.92c.37,0,1.66,5.4.83,5.55-.84-.47-1.67-5.55-.83-5.55Z"/>
            <path class="cls-1" d="M98.78,114.81c.45-.07,2.2,5.1,1.39,5.27-.82-.21-2.19-5.15-1.39-5.27Z"/>
            <path class="cls-1" d="M95.45,28.52c.85.12-.33,5.9-1.11,5.27-.33-.76.47-5.36,1.11-5.27Z"/>
            <path class="cls-1" d="M104.33,31.57c.34-.09.75.33.69.69-.45.59-1.58,4.22-2.08,4.3-1.26.2,1.11-4.92,1.39-4.99Z"/>
            <path class="cls-1" d="M50.78,99.55c2.43-.17-3.53,4.44-3.75,3.19-.13-.74,3.33-2.4,3.75-3.19Z"/>
            <path class="cls-1" d="M47.45,46.55c.45-.05,4.09,2.88,4.02,3.19-.28,1.36-5.37-3.03-4.02-3.19Z"/>
            <path class="cls-1" d="M56.6,105.93c2.02-.17-2.37,4.23-2.77,4.16-1.08-.18,2.51-4.14,2.77-4.16Z"/>
            <path class="cls-1" d="M60.21,108.71c1.31.04-1.97,4.59-2.77,4.44-.63-.41,2.51-4.45,2.77-4.44Z"/>
            <path class="cls-1" d="M127.36,83.18c.26-.05,4.82.8,4.86,1.53-.23.87-5.02-.64-5.13-.97-.28-.14.22-.54.28-.55Z"/>
            <path class="cls-1" d="M128.19,79.02c.55-.18,5.08.14,4.86.97-.2.9-6.7-.37-4.86-.97Z"/>
            <path class="cls-1" d="M123.2,46.83c.28-.04.76-.07.97.14.25.33-3.24,3.31-4.16,2.77-.32-.49,2.98-2.88,3.19-2.91Z"/>
            <path class="cls-1" d="M128.75,55.43c2.15.29-4.18,3.53-4.3,2.36l4.3-2.36Z"/>
            <path class="cls-1" d="M68.26,113.42c1.08.13-1.18,4.84-1.66,4.72-1.11-.29,1.41-4.75,1.66-4.72Z"/>
            <path class="cls-1" d="M72.42,114.81c1.08,0-.66,4.88-1.39,5.27-.9-.1,1.03-4.8,1.39-5.27Z"/>
            <path class="cls-1" d="M76.86,115.92c.67.1-.24,5.08-1.11,5.27-.7-.15.55-5.36,1.11-5.27Z"/>
            <path class="cls-1" d="M81.02,116.75c.84,0,.43,5.48-.55,5.27l.55-5.27Z"/>
            <path class="cls-1" d="M80.47,27.96c.95-.25,1.12,4.33.83,4.99-1.07-.27-1.39-4.85-.83-4.99Z"/>
            <path class="cls-1" d="M71.03,29.91c1.3.81,1.77,3.57,1.66,4.99-1.13-.89-1.84-3.55-1.66-4.99Z"/>
            <path class="cls-1" d="M117.09,39.62c2.26-.31-3.86,5.74-3.05,3.33.56-.45,2.61-3.27,3.05-3.33Z"/>
            <path class="cls-1" d="M130.69,59.87c2.32.47-4.22,2.7-4.58,2.08-.6-.83,4.3-1.69,4.58-2.08Z"/>
            <path class="cls-1" d="M100.17,29.91c.87.03-.69,4.68-1.39,4.99-.77-.73.94-5.01,1.39-4.99Z"/>
            <path class="cls-1" d="M113.49,36.56c1.39.04-2.23,4.45-2.5,4.44-1.31-.04,2.22-4.45,2.5-4.44Z"/>
            <path class="cls-1" d="M120.42,42.95c2.28-.19-2.54,3.62-3.05,3.88-1.09-.04,2.79-3.86,3.05-3.88Z"/>
            <path class="cls-1" d="M45.92,50.72l-1.11,1.94c-1.63-1.55-1.02-2.35,1.11-1.94Z"/>
            <path class="cls-1" d="M131.38,64.59c-.56.39-1.48.35-2.22.55-1.56-1.83,1.21-1.32,2.22-.55Z"/>
            <g>
              <path class="cls-1" d="M90.87,75.97c-.55,3.31-4.81,4.83-7.77,3.88-.08-.03-1.03-1.36-1.11-1.39.76-1.55-.98-2.17-.55-4.3.66-3.29,4.81-2.98,7.21-3.47,1.64,1.13,2.56,3.22,2.22,5.27Z"/>
              <path class="cls-1" d="M84.91,73.19c2.89-.81,3.44,3.29,1.66,3.88-2.96,1-3.8-3.29-1.66-3.88Z"/>
              <path class="cls-1" d="M89.07,72.64c1.88.54,1.22,3.9.42,5.13-1.21,1.86-2.97,1.08-4.58.97,4.03-.8,3.88-2.61,4.16-6.1Z"/>
            </g>
          </g>
        </g>
      </g>
    </g>
  </g>
</svg>