<?xml version="1.0" encoding="UTF-8"?>
<svg id="Capa_1" data-name="Capa 1" xmlns="http://www.w3.org/2000/svg" viewBox="0 0 145.81 230.6">
  <defs>
    <style>
      .cls-1 {
        fill: #fff;
      }

      .cls-2 {
        fill: #101114;
      }
    </style>
  </defs>
  <g id="Objeto_generativo" data-name="Objeto generativo">
    <g>
      <path class="cls-1" d="M97.47,68.5c-3.02,5.5-2.26,11.66-3.23,17.59-1.94,11.96-5.65,22.95-6.81,35.01-4.92.79-10.02.13-14.88-.67-1.99-.33-17.63-4.38-18.29-5.02-.33-.33-.1-.66-.18-1-.05-.19,0-.46,0-.67.56-.67,2.71-4.01,2.87-4.52,1.46-4.81-.18-15.17-2.15-19.76-.62-1.45-3.87-4.83-3.95-5.36-.12-.88,1.06-3.15,1.08-4.02.04-2.59.11-6.62-.72-9.04-1.41-4.12-4.71-1.83,1.08-5.86.2-.14.34-.87.54-1,1.02-.65,6.38-2.3,7.35-3.01,3.76,1.85,22.17,8.75,18.29-.67,2.09-3.01,7.29-2.34,10.22-5.36,3.86,3.78,7.02,7.75,7.35,13.23,1.99-.69,1.33.18,1.43.17Z"/>
      <path class="cls-1" d="M52.27,65.15c-5.78,4.03-2.48,1.74-1.08,5.86.83,2.43.76,6.45.72,9.04-.01.87-1.2,3.14-1.08,4.02.07.53,3.32,3.91,3.95,5.36,1.97,4.59,3.61,14.95,2.15,19.76-.16.51-2.3,3.85-2.87,4.52.06-1.96,3.02-6.14,3.23-8.54.13-1.44-1.4-9.47-2.15-11.39-.31-.78-4.36-7.79-4.84-7.87-2.12,2.43-4.2,4.54-6.64,6.7-1.22-3.97-6.58-6.44-10.76-6.36,1.28-2.06,2.16-5.57,3.59-7.87,3.86-6.22,8.32-10.84,15.78-13.23Z"/>
      <path class="cls-1" d="M72.72,31.98c-2.78-.52-7.93,2.18-7.17,5.19.03.13,1.74,1.74,1.79,2.01.07.35-.21,6.71-.36,7.03-.88,1.88-3.73-2.38-5.2-2.51-5.8-.52.81,6.1.9,6.53.18.87-.69,2.44-.72,3.18-6.92-5.76-15.17-15.53-4.84-22.44,4.03-2.7,15.16-6.35,15.6,1Z"/>
      <path class="cls-1" d="M103.56,63.14c.02.65.37.79.36.84-.14.59-5.45,4.38-6.46,4.52-.1.01.55-.85-1.43-.17-.33-5.48-3.5-9.45-7.35-13.23-2.93,3.02-8.13,2.35-10.22,5.36,0-.02-.16.12-.36-.33-.06-.15.06-.51,0-.67,1.94-1.77,4.73-1.67,6.99-2.68,1.8-.81,4.34-2.8,6.46-3.68,2.27-.95,6.61-1.24,8.79-2.34,1.38,3.4,3.12,8.79,3.23,12.39Z"/>
      <g>
        <path class="cls-1" d="M43.67,92.62c-6.75,5.98-7.86,8.5-13.27,14.57-3.18,3.57-16.69,11.66-17.93,14.74-.25.61.83,8.82,1.08,10.05.16.78,3.84,6.39-.18,4.52-2.53-1.17-1.54-5.89-3.95-5.36-1.4.31-6.69,10.6-8.97,9.71-1.43-.56,1.03-4.84,1.26-5.86,5.11-23.11,19.94-30.59,31.2-48.74,4.18-.08,9.54,2.39,10.76,6.36Z"/>
        <path class="cls-1" d="M103.56,63.14c-.11-3.6-1.85-9-3.23-12.39,12.34-6.27,21.68-27.89,27.26-39.7,1.51-3.2,5.22-5.96,4.66-10.72,4.33-2.15.79,6.99,1.43,8.04,9.06-2.8,2.08,1.78.72,3.68-7.22,10.08-7.39,23.06-12.91,34.17l-17.93,16.92Z"/>
        <path class="cls-1" d="M72.72,31.98c3.46.65,4.23,5.84,5.38,7.87.35.62,2.78,2.29,2.87,2.68.29,1.21-.83,1.33-.72,2.34.01.12.64.3.72,1.34.02.26-.72-.1-.72.67,0,.22,1.51,1.51.72,4.02-.74,2.35-1.52,1.79-3.23,2.18-1.17.27-4.73.68-5.92.67-.81,0-4.2-1.15-4.66-1,.48,4.36,6.15,7.96,10.94,7.37.2.46.35.31.36.33,3.88,9.42-14.53,2.52-18.29.67,2.37-1.74,1.69-5.27,1.79-7.7.03-.75.89-2.32.72-3.18-.09-.43-6.7-7.05-.9-6.53,1.47.13,4.32,4.39,5.2,2.51.15-.32.43-6.69.36-7.03-.05-.27-1.76-1.88-1.79-2.01-.76-3.01,4.39-5.71,7.17-5.19Z"/>
        <path class="cls-1" d="M77.74,53.09c-2.3,1.05-1.51,3.87-.72,5.86.24.59,1.06.45,1.08.5.06.16-.06.52,0,.67-4.79.59-10.46-3.01-10.94-7.37.46-.15,3.86,1,4.66,1,1.19.01,4.75-.4,5.92-.67Z"/>
      </g>
      <g>
        <path class="cls-1" d="M144.81,219.91c-4.09-.28-9.73.93-14.53.67-2.43-.13-5.41-1.9-7.89-1.34-.27.06-1.21,1.31-1.43,1.34-1.71.2-8.82.37-9.5-1.17-.33-.75-.08-4.21-.36-5.19l.9.67c.24-1.84,3.46-.74,5.02-1,4.53-.77,9.62-2.86,12.02-6.7,1.15,1.25,6.46,6.41,7.71,7.03,3.03,1.51,12.06,1.25,8.07,5.69Z"/>
        <path class="cls-2" d="M87.42,121.09c-.09.96-1.07,2.54-1.08,2.68-11.67.45-23.64-1.91-34.07-6.7.48-.84.51-2.23,1.79-2.68.08.35-.16.68.18,1,.66.65,16.31,4.7,18.29,5.02,4.87.8,9.96,1.46,14.88.67Z"/>
        <path class="cls-1" d="M65.54,217.57c-1.05,2.91-4.21,4.87-4.3,5.19-.22.78.79,4.21.36,5.69-.63,2.18-14.34,3.97-13.99-1.34.22-3.36,4.73-5.75,4.66-10.22l.9,1.34,12.37-.67Z"/>
        <g>
          <path class="cls-1" d="M86.35,123.77c-.11,2.52,2.65,2.15,3.59,3.52.88,1.28.63,3.11,1.43,4.35,1.93,2.98,5.15,5.93,7.17,9.04,2.14,3.3,12.49,19.13,13.27,21.44,1.28,3.8.03,7.98.72,11.72,1.04,5.61,5.65,12.89,6.46,19.93l-13.63-9.55c3.6,4.62,9.27,7.16,13.63,10.55,3.28,2.56,3.31,2.83,5.38,6.03-.69.22-2.61-.43-3.23-.67-.87-.61-1.89-2.1-3.23-1.84,1.01.87,1.97,1.35,3.23,1.84.96.67,1.9,1.68,3.23,1.67,1.01,1.6,3.28,3.86,4.66,5.36-2.4,3.84-7.48,5.93-12.02,6.7-1.56.26-4.79-.83-5.02,1l-.9-.67c-.19-.67-.35-.63-.36-.67-3.22-10.91-9.18-21.96-13.27-32.66-1.23-3.21-2.78-11.77-3.95-13.73-.58-.97-9.16-7.33-11.12-9.38-2.56-2.68-4.32-5.97-6.99-8.54-2.55.4-7.01,23.92-7.35,27.3-1.47,14.62,2.53,25.58-2.51,40.03-.09.26.09.75,0,1l-12.37.67-.9-1.34c0-.22.01-.45,0-.67-.71-11.17-2.35-22.18-2.15-33.5l.72.5c.7-1.13,8.65-9.9,7.35-10.55l-6.1,7.03-1.26-4.35c.1-4.02,1.04-7.88,1.08-11.22.03-2.61-.94-7.03-1.08-10.22l5.74-6.2c-1.94.47-2.91,3.92-5.02,2.85.07-3.6-1.67-4.87-2.15-7.54-.21-1.18-1.04-6.21-1.08-6.7-.58-6.87.47-13.22,3.95-19.26,10.44,4.79,22.4,7.15,34.07,6.7Z"/>
          <g>
            <path class="cls-2" d="M50.12,182.73c.04-2.11.66-4.82.72-7.37l1.26,4.35,6.1-7.03c1.3.65-6.65,9.42-7.35,10.55l-.72-.5Z"/>
            <path class="cls-2" d="M118.99,193.78c.04.33-.02.68,0,1-4.36-3.39-10.03-5.93-13.63-10.55l13.63,9.55Z"/>
            <path class="cls-2" d="M50.84,153.92c-.08-1.98.7-2.63.72-3.35,2.11,1.07,3.08-2.37,5.02-2.85l-5.74,6.2Z"/>
            <path class="cls-2" d="M124.37,200.82c.1.16-.1.84,0,1-1.33,0-2.27-1.01-3.23-1.67.62.24,2.54.89,3.23.67Z"/>
            <path class="cls-2" d="M80.07,148.56l17.04,1.51c-5.49.89-12.02,1-17.04-1.51Z"/>
            <path class="cls-2" d="M81.15,150.91l19.55,5.86c-5.68.78-11.33-1.16-16.32-3.52l-3.23-2.34Z"/>
            <path class="cls-2" d="M117.73,205.84c.83.09,10.35.75,9.86,1.84-3.28-.46-6.86-.36-9.86-1.84Z"/>
            <path class="cls-2" d="M115.04,196.46c-3.05-1.23-5.62-3.7-8.25-5.53,3.14,1.12,5.75,3.46,8.25,5.53Z"/>
            <path class="cls-2" d="M121.14,200.15c-1.26-.5-2.22-.97-3.23-1.84,1.34-.25,2.35,1.24,3.23,1.84Z"/>
            <path class="cls-2" d="M115.04,196.46c.15.12,1.21-.32,1.08.5-.35.32-1.02-.48-1.08-.5Z"/>
          </g>
        </g>
      </g>
    </g>
  </g>
</svg>