<?xml version="1.0" encoding="UTF-8"?>
<svg id="Capa_1" data-name="Capa 1" xmlns="http://www.w3.org/2000/svg" viewBox="0 0 154.83 236.24">
  <defs>
    <style>
      .cls-1 {
        fill: #fff;
      }

      .cls-2 {
        fill: #cfcfd0;
      }
    </style>
  </defs>
  <g id="Objeto_generativo" data-name="Objeto generativo">
    <g>
      <path class="cls-1" d="M36.48.01c5.98-.32,17.61,6.6,17.21,13.14-.1,1.67-1.66,1.41-1.85,2.22-.13.56.76,3.98.74,4.81,0,.33-1.11,1.39-1.11,1.48.05,1.69,2.94,7.15,2.22,8.14-5.33-.52-3,.83-4.44,3.7-.51,1.02-3.05,5.96-3.89,6.11-8.43-1.86-9.39-10.67-17.21-13.14C26.62,17.86,23.04.73,36.48.01Z"/>
      <path class="cls-1" d="M11.68,39.24c.28-.04.79-.09.93.19-1.46,2.49-.82,6.49-1.48,8.88-.06.21-1.94,2.63-2.22,3.7-1.54,5.84-1.73,10.81-4.44,16.29l3.52-6.48c3.53,1.8,6.54,3.54,10.73,2.96,1.43.63-.89,20.89-7.03,22.21-12.74,2.74-8.79-18.65-8.7-25.35.05-3.29-1.23-7.17-.74-11.1.62-5.05,4.13-10.48,9.44-11.29Z"/>
      <path class="cls-1" d="M140.12,24.07c4.29-.44,9.75.07,12.4,3.89,5.96,8.59-.2,27.11-11.47,17.4,13.15,6.2,16.96-9.75,3.7-10.73,7.83,1.49,11,12.12.19,10.92-2.91-.32-13.94-5.77-14.99-8.33-.73-1.78-1.3-8.64,0-9.99.37-.38,9.19-3.04,10.18-3.15Z"/>
      <path class="cls-1" d="M21.31,26.66c4.64-.66,14.16,3.04,14.62,8.33.35,4.01-4.15,10.98-8.51,9.25l3.52-8.7c-1.1-.56-6.8,16.46-8.51,17.03s-9.68-2.74-10.18-4.26c-1.38-4.18,2.95-20.78,9.07-21.65Z"/>
      <path class="cls-1" d="M11.68,49.24c3.04,2.54,6.84,4.63,10.92,4.26-1.94,6.68-.54,12.12-9.44,9.81-7.98-2.07-4.26-8.99-1.48-14.07Z"/>
      <path class="cls-1" d="M126.42,26.66c.51,0,2.13-.16,2.41.19-1.68,4.3-2.05,10.15,1.85,13.32-4.67.43-9.95,2.49-11.1-3.7-1.21-6.5.09-9.75,6.85-9.81Z"/>
      <g>
        <path class="cls-1" d="M115.51,221.72c1.17,1.79,2.97,3.85,4.63,5.18,1.88,1.51,14.29,6.68,8.14,8.88-5.43,1.94-12.21-2.84-17.4-4.44-1.24-.38-4.28.1-5.55-.74-1.74-1.15-.36-8.04-.56-10.36-1.04-12.5-11.35-18.6-15.55-28.32-2.31-5.35-2.41-12.41-5.18-17.4-1.4-2.52-5.14-6.39-7.03-9.25-2.78-4.2-3.75-12.5-9.99-7.77l3.52.19c-1.23.86-11.73,3.06-12.58,2.59l-9.25-25.54-7.96,24.98-14.62-1.67,6.11-.56c-.98-.29-5.98-2.55-6.48-2.41-.96.27-7.09,15.96-9.44,17.58,3.37,10.84-.26,23.67,1.11,34.05.57,4.3,4.24,8.64,4.07,13.14-.2,5.39-3.66,3.06-6.48,4.44-2.41,1.19-1.9,4.16-7.77,4.81-9.34,1.04-8.5-2.05-3.89-7.77,1.76-2.18,6.14-5.72,6.66-8.7.83-4.73-3.92-13.25-5.18-18.14-2.1-8.18-3.27-20.12-2.22-28.5.35-2.82,4.6-11.07,5.92-14.81,4.67-13.22,11.68-26.67,15.18-40.34,1.69-6.6,3.7-13.42,2.59-20.73-1.22-8-7.6-17.13-6.29-24.8.33-1.92,5.78-17.84,6.66-18.88,1.09-1.27,3.65-1.03,5.37-2.04,2.68-1.57,4.32-5.67,5.18-8.51,1.41,1.29,6.83,5.1,8.51,4.81,2.38-.41,5.01-9.8,5.55-9.99.16-.05,2.15.48,3.33,0,7.81-3.16,8.56-5.13,18.14-2.59.84.22,2.55,2.05,3.33,2.22,1.14.25,13.75,1.1,15.55,1.11,4.62.04,8.97-2.21,13.32-2.59,4.6-.4,9.27.75,13.88.19-.7,3.6-.63,7.35.74,10.73-4.78,1.43-11.8,4.41-16.84,3.52-.98-.17-3.14-1.82-3.33-1.85-1.84-.33-12.4,3.48-16.29,3.7-2.53.14-12.34-1.32-12.95-1.11-.93.31-2.89,4.71-3.15,5.74-9.34,36.92,8.99,60.43,21.1,92.16,7.28,19.08,13.86,39.04,20.36,58.48,2.21,6.62,3.34,15.66,7.03,21.28Z"/>
        <path class="cls-1" d="M67.2,96.25c.44.01.98-.14,1.3.19,1.31,1.86-19.05,5.22-20.54,5.37-1.97.19-21.27,1.04-21.28-.93,7.3-.94,14.69-.54,22.02-1.3,4.82-.5,14.69-3.46,18.51-3.33Z"/>
        <path class="cls-2" d="M72.01,39.62c.25-.06.78-.08.93.19l-9.07,10.55c-.39-2.16,7.13-10.47,8.14-10.73Z"/>
      </g>
    </g>
  </g>
</svg>